<svg width="213.5875244140625px" height="122.021240234375px" xmlns="http://www.w3.org/2000/svg" viewBox="143.20623779296875 13.9893798828125 213.5875244140625 122.021240234375" style="background: rgba(0, 0, 0, 0);" preserveAspectRatio="xMidYMid"><defs><filter id="editing-extrusion" x="-100%" y="-100%" width="300%" height="300%"><feFlood result="color1" flood-color="#444"></feFlood><feConvolveMatrix order="8,8" divisor="1" kernelMatrix="1 0 0 0 0 0 0 0 0 1 0 0 0 0 0 0 0 0 1 0 0 0 0 0 0 0 0 1 0 0 0 0 0 0 0 0 1 0 0 0 0 0 0 0 0 1 0 0 0 0 0 0 0 0 1 0 0 0 0 0 0 0 0 1" in="SourceAlpha" result="extrude"></feConvolveMatrix><feComposite in="color1" in2="extrude" result="comp-extrude" operator="in"></feComposite><feOffset dx="4" dy="4" in="comp-extrude" result="offset-extrude"></feOffset><feMerge><feMergeNode in="offset-extrude"></feMergeNode><feMergeNode in="SourceGraphic"></feMergeNode></feMerge></filter></defs><g filter="url(#editing-extrusion)"><g transform="translate(179.75812351703644, 96.97718620300293)"><path d="M6.53 0L-0.83 0L10.75-42.24L24.13-42.24L27.07-18.11L38.98-42.24L50.18-42.24L51.33-10.62L51.33-10.62Q51.58-4.35 54.66-2.43L54.66-2.43L54.66-2.43Q53.95-1.15 51.90 0.06L51.90 0.06L51.90 0.06Q49.86 1.28 47.14 1.28L47.14 1.28L47.14 1.28Q44.42 1.28 42.82 0.51L42.82 0.51L42.82 0.51Q41.22-0.26 40.32-1.54L40.32-1.54L40.32-1.54Q38.72-3.84 38.72-8.26L38.72-8.26L38.72-28.03L26.11 0L18.18 0L13.70-28.74L6.53 0ZM82.43-42.69L82.43-42.69L82.43-42.69Q98.11-42.69 98.11-31.62L98.11-31.62L98.11-31.62Q98.11-25.54 94.21-21.89L94.21-21.89L94.21-21.89Q90.37-18.24 83.65-18.24L83.65-18.24L83.65-18.24Q80.51-18.24 78.08-20.03L78.08-20.03L78.08-20.03Q76.93-20.80 76.16-21.82L76.16-21.82L76.16-21.82Q80.83-21.82 83.30-24.67L83.30-24.67L83.30-24.67Q85.76-27.52 85.76-33.09L85.76-33.09L85.76-33.09Q85.76-38.66 80.26-38.66L80.26-38.66L78.72-38.66L78.72-38.66Q78.34-38.66 78.02-38.59L78.02-38.59L70.66 0L56.77 0L64.64-41.92L64.64-41.92Q71.49-42.56 75.46-42.62L75.46-42.62L75.46-42.62Q79.42-42.69 82.43-42.69ZM99.65-9.47L99.65-9.47L99.65-9.47Q99.65-11.97 100.29-15.17L100.29-15.17L105.47-42.24L119.62-42.24L114.50-14.98L114.50-14.98Q113.92-11.97 113.92-9.76L113.92-9.76L113.92-9.76Q113.92-7.55 114.85-6.40L114.85-6.40L114.85-6.40Q115.78-5.25 117.50-5.25L117.50-5.25L117.50-5.25Q119.23-5.25 120.32-5.70L120.32-5.70L120.32-5.70Q121.41-6.14 122.30-7.23L122.30-7.23L122.30-7.23Q124.03-9.41 125.12-14.98L125.12-14.98L130.30-42.24L139.97-42.24L134.85-15.04L134.85-15.04Q133.06-5.95 128.13-2.30L128.13-2.30L128.13-2.30Q123.33 1.28 113.86 1.28L113.86 1.28L113.86 1.28Q106.75 1.28 102.98-1.79L102.98-1.79L102.98-1.79Q99.65-4.48 99.65-9.47Z" fill="#ccc"></path></g></g><style>text {
  font-size: 64px;
  font-family: Arial Black;
  dominant-baseline: central;
  text-anchor: middle;
}</style></svg>