<svg width="837.657470703125px" height="122.021240234375px" xmlns="http://www.w3.org/2000/svg" viewBox="-168.8287353515625 13.9893798828125 837.657470703125 122.021240234375" style="background: rgba(0, 0, 0, 0);" preserveAspectRatio="xMidYMid"><defs><filter id="editing-extrusion" x="-100%" y="-100%" width="300%" height="300%"><feFlood result="color1" flood-color="#444"></feFlood><feConvolveMatrix order="8,8" divisor="1" kernelMatrix="1 0 0 0 0 0 0 0 0 1 0 0 0 0 0 0 0 0 1 0 0 0 0 0 0 0 0 1 0 0 0 0 0 0 0 0 1 0 0 0 0 0 0 0 0 1 0 0 0 0 0 0 0 0 1 0 0 0 0 0 0 0 0 1" in="SourceAlpha" result="extrude"></feConvolveMatrix><feComposite in="color1" in2="extrude" result="comp-extrude" operator="in"></feComposite><feOffset dx="4" dy="4" in="comp-extrude" result="offset-extrude"></feOffset><feMerge><feMergeNode in="offset-extrude"></feMergeNode><feMergeNode in="SourceGraphic"></feMergeNode></feMerge></filter></defs><g filter="url(#editing-extrusion)"><g transform="translate(-49.158769488334656, 104.75218772888184)"><path d="M6.53 0L-0.83 0L10.75-42.24L24.13-42.24L27.07-18.11L38.98-42.24L50.18-42.24L51.33-10.62L51.33-10.62Q51.58-4.35 54.66-2.43L54.66-2.43L54.66-2.43Q53.95-1.15 51.90 0.06L51.90 0.06L51.90 0.06Q49.86 1.28 47.14 1.28L47.14 1.28L47.14 1.28Q44.42 1.28 42.82 0.51L42.82 0.51L42.82 0.51Q41.22-0.26 40.32-1.54L40.32-1.54L40.32-1.54Q38.72-3.84 38.72-8.26L38.72-8.26L38.72-28.03L26.11 0L18.18 0L13.70-28.74L6.53 0ZM70.46 0L56.83 0L64.13-38.91L64.83-42.24L78.53-42.24L70.46 0ZM96.45-3.78L96.45-3.78L96.45-3.78Q94.72 1.28 88.06 1.28L88.06 1.28L88.06 1.28Q83.14 1.28 79.74-4.61L79.74-4.61L79.74-4.61Q76.29-10.50 75.65-20.10L75.65-20.10L75.65-20.10Q82.69-32.96 87.55-38.27L87.55-38.27L87.55-38.27Q92.22-43.33 97.09-43.33L97.09-43.33L97.09-43.33Q99.71-43.33 101.60-41.92L101.60-41.92L101.60-41.92Q103.49-40.51 103.94-38.27L103.94-38.27L103.94-38.27Q101.76-37.38 100.74-36.67L100.74-36.67L100.74-36.67Q98.18-34.75 94.72-30.46L94.72-30.46L88.90-23.49L88.90-23.49Q87.49-21.82 86.91-21.06L86.91-21.06L86.91-21.06Q87.87-15.68 90.75-10.37L90.75-10.37L90.75-10.37Q93.50-5.31 96.45-3.78ZM107.33 0L99.97 0L111.55-42.24L124.93-42.24L127.87-18.11L139.78-42.24L150.98-42.24L152.13-10.62L152.13-10.62Q152.38-4.35 155.46-2.43L155.46-2.43L155.46-2.43Q154.75-1.15 152.70 0.06L152.70 0.06L152.70 0.06Q150.66 1.28 147.94 1.28L147.94 1.28L147.94 1.28Q145.22 1.28 143.62 0.51L143.62 0.51L143.62 0.51Q142.02-0.26 141.12-1.54L141.12-1.54L141.12-1.54Q139.52-3.84 139.52-8.26L139.52-8.26L139.52-28.03L126.91 0L118.98 0L114.50-28.74L107.33 0ZM196.42-42.69L196.42-42.69L196.42-42.69Q212.10-42.69 212.10-31.62L212.10-31.62L212.10-31.62Q212.10-25.54 208.19-21.89L208.19-21.89L208.19-21.89Q204.35-18.24 197.63-18.24L197.63-18.24L197.63-18.24Q194.50-18.24 192.06-20.03L192.06-20.03L192.06-20.03Q190.91-20.80 190.14-21.82L190.14-21.82L190.14-21.82Q194.82-21.82 197.28-24.67L197.28-24.67L197.28-24.67Q199.74-27.52 199.74-33.09L199.74-33.09L199.74-33.09Q199.74-38.66 194.24-38.66L194.24-38.66L192.70-38.66L192.70-38.66Q192.32-38.66 192-38.59L192-38.59L184.64 0L170.75 0L178.62-41.92L178.62-41.92Q185.47-42.56 189.44-42.62L189.44-42.62L189.44-42.62Q193.41-42.69 196.42-42.69ZM232.45-17.98L232.45-17.98L232.45-17.98Q234.75-22.08 234.75-26.24L234.75-26.24L234.75-26.24Q234.75-28.99 232.77-28.99L232.77-28.99L232.77-28.99Q231.23-28.99 229.63-26.37L229.63-26.37L229.63-26.37Q227.97-23.74 227.46-20.35L227.46-20.35L224.13 0L210.88 1.28L217.41-32.64L227.97-33.92L226.82-27.46L226.82-27.46Q229.95-33.92 236.99-33.92L236.99-33.92L236.99-33.92Q240.70-33.92 242.72-32L242.72-32L242.72-32Q244.74-30.08 244.74-26.14L244.74-26.14L244.74-26.14Q244.74-22.21 242.14-19.71L242.14-19.71L242.14-19.71Q239.55-17.22 235.14-17.22L235.14-17.22L235.14-17.22Q233.22-17.22 232.45-17.98ZM261.12-3.52L261.12-3.52L261.12-3.52Q259.14 1.28 252.80 1.28L252.80 1.28L252.80 1.28Q249.54 1.28 247.49-0.96L247.49-0.96L247.49-0.96Q245.76-2.94 245.76-4.93L245.76-4.93L245.76-4.93Q245.76-10.11 248.13-20.22L248.13-20.22L250.50-32.64L263.49-33.92L259.58-13.70L259.58-13.70Q258.50-8.96 258.50-7.30L258.50-7.30L258.50-7.30Q258.50-3.65 261.12-3.52ZM251.65-41.54L251.65-41.54L251.65-41.54Q251.65-44.03 253.73-45.38L253.73-45.38L253.73-45.38Q255.81-46.72 258.82-46.72L258.82-46.72L258.82-46.72Q261.82-46.72 263.65-45.38L263.65-45.38L263.65-45.38Q265.47-44.03 265.47-41.54L265.47-41.54L265.47-41.54Q265.47-39.04 263.46-37.76L263.46-37.76L263.46-37.76Q261.44-36.48 258.43-36.48L258.43-36.48L258.43-36.48Q255.42-36.48 253.54-37.76L253.54-37.76L253.54-37.76Q251.65-39.04 251.65-41.54ZM297.98-26.62L297.98-26.62L297.98-26.62Q297.98-23.94 295.74-22.27L295.74-22.27L295.74-22.27Q293.50-20.61 289.86-20.61L289.86-20.61L289.86-20.61Q288.32-20.61 287.42-21.06L287.42-21.06L287.42-21.06Q288.13-22.72 288.35-24.80L288.35-24.80L288.35-24.80Q288.58-26.88 288.58-27.46L288.58-27.46L288.58-27.46Q288.58-30.14 286.72-30.14L286.72-30.14L286.72-30.14Q285.44-30.14 284-28.54L284-28.54L284-28.54Q282.56-26.94 281.34-24.45L281.34-24.45L281.34-24.45Q278.66-18.69 278.66-12.86L278.66-12.86L278.66-12.86Q278.66-9.66 279.87-8.22L279.87-8.22L279.87-8.22Q281.09-6.78 283.78-6.78L283.78-6.78L283.78-6.78Q287.49-6.78 290.43-9.86L290.43-9.86L290.43-9.86Q291.26-10.82 291.71-11.90L291.71-11.90L291.71-11.90Q294.14-10.62 294.14-7.10L294.14-7.10L294.14-7.10Q294.14-3.52 290.18-1.15L290.18-1.15L290.18-1.15Q286.08 1.28 279.55 1.28L279.55 1.28L279.55 1.28Q266.56 1.28 266.56-12.48L266.56-12.48L266.56-12.48Q266.56-22.53 272.26-28.29L272.26-28.29L272.26-28.29Q277.76-33.92 287.87-33.92L287.87-33.92L287.87-33.92Q297.98-33.92 297.98-26.62ZM325.63-10.82L325.63-10.82L325.63-10.82Q327.23-9.73 327.23-7.33L327.23-7.33L327.23-7.33Q327.23-4.93 326.02-3.39L326.02-3.39L326.02-3.39Q324.80-1.86 322.82-0.83L322.82-0.83L322.82-0.83Q318.72 1.28 314.30 1.28L314.30 1.28L314.30 1.28Q309.89 1.28 307.30 0.32L307.30 0.32L307.30 0.32Q304.70-0.64 302.98-2.43L302.98-2.43L302.98-2.43Q299.58-5.82 299.58-12.03L299.58-12.03L299.58-12.03Q299.58-21.70 304.83-27.58L304.83-27.58L304.83-27.58Q310.46-33.92 320.26-33.92L320.26-33.92L320.26-33.92Q326.34-33.92 329.34-31.36L329.34-31.36L329.34-31.36Q331.58-29.44 331.58-26.30L331.58-26.30L331.58-26.30Q331.58-15.04 312.13-15.04L312.13-15.04L312.13-15.04Q311.87-13.38 311.87-11.97L311.87-11.97L311.87-11.97Q311.87-9.02 313.18-7.90L313.18-7.90L313.18-7.90Q314.50-6.78 316.93-6.78L316.93-6.78L316.93-6.78Q319.36-6.78 321.95-7.90L321.95-7.90L321.95-7.90Q324.54-9.02 325.63-10.82ZM312.58-17.79L312.58-17.79L312.58-17.79Q317.12-17.79 319.74-20.61L319.74-20.61L319.74-20.61Q322.37-23.30 322.37-27.58L322.37-27.58L322.37-27.58Q322.37-29.06 321.82-29.86L321.82-29.86L321.82-29.86Q321.28-30.66 320.19-30.66L320.19-30.66L320.19-30.66Q319.10-30.66 318.18-30.24L318.18-30.24L318.18-30.24Q317.25-29.82 316.29-28.42L316.29-28.42L316.29-28.42Q313.92-25.22 312.58-17.79ZM348.16-9.47L348.16-9.47L348.16-9.47Q348.16-11.97 348.80-15.17L348.80-15.17L353.98-42.24L368.13-42.24L363.01-14.98L363.01-14.98Q362.43-11.97 362.43-9.76L362.43-9.76L362.43-9.76Q362.43-7.55 363.36-6.40L363.36-6.40L363.36-6.40Q364.29-5.25 366.02-5.25L366.02-5.25L366.02-5.25Q367.74-5.25 368.83-5.70L368.83-5.70L368.83-5.70Q369.92-6.14 370.82-7.23L370.82-7.23L370.82-7.23Q372.54-9.41 373.63-14.98L373.63-14.98L378.82-42.24L388.48-42.24L383.36-15.04L383.36-15.04Q381.57-5.95 376.64-2.30L376.64-2.30L376.64-2.30Q371.84 1.28 362.37 1.28L362.37 1.28L362.37 1.28Q355.26 1.28 351.49-1.79L351.49-1.79L351.49-1.79Q348.16-4.48 348.16-9.47ZM419.58-4.38L419.58-4.38L419.58-4.38Q416.90-1.66 413.22-0.19L413.22-0.19L413.22-0.19Q409.54 1.28 405.89 1.28L405.89 1.28L405.89 1.28Q402.24 1.28 400.96 0.64L400.96 0.64L398.98 11.52L385.98 12.80L394.82-32.64L405.25-33.73L404.42-29.31L404.42-29.31Q407.10-33.86 412.67-33.86L412.67-33.86L412.67-33.86Q418.94-33.86 422.27-29.82L422.27-29.82L422.27-29.82Q425.22-26.18 425.22-20.61L425.22-20.61L425.22-20.61Q425.22-15.04 423.74-11.07L423.74-11.07L423.74-11.07Q422.27-7.10 419.58-4.38ZM405.12-22.34L401.73-3.58L401.73-3.58Q403.07-2.43 404.74-2.43L404.74-2.43L404.74-2.43Q406.40-2.43 407.36-3.07L407.36-3.07L407.36-3.07Q408.32-3.71 409.02-4.99L409.02-4.99L409.02-4.99Q410.94-8.45 412.48-18.94L412.48-18.94L412.48-18.94Q412.93-22.02 412.93-25.02L412.93-25.02L412.93-25.02Q412.93-28.03 412.26-28.99L412.26-28.99L412.26-28.99Q411.58-29.95 410.30-29.95L410.30-29.95L410.30-29.95Q406.40-29.95 405.12-22.34L405.12-22.34ZM449.22-33.92L449.22-33.92L449.22-33.92Q451.52-33.92 453.31-33.41L453.31-33.41L453.31-33.41Q453.38-33.66 453.50-34.37L453.50-34.37L453.82-36.35L453.82-36.35Q454.08-37.63 454.46-39.74L454.46-39.74L455.49-44.80L468.22-46.08L461.12-8.96L461.12-8.96Q461.06-8.58 461.06-7.94L461.06-7.94L461.06-6.91L461.06-6.91Q461.06-5.50 461.76-4.45L461.76-4.45L461.76-4.45Q462.46-3.39 463.62-3.39L463.62-3.39L463.62-3.39Q462.34-0.38 458.43 0.90L458.43 0.90L458.43 0.90Q457.09 1.28 455.20 1.28L455.20 1.28L455.20 1.28Q453.31 1.28 451.58 0.29L451.58 0.29L451.58 0.29Q449.86-0.70 449.34-2.37L449.34-2.37L449.34-2.37Q448.32-0.70 446.27 0.29L446.27 0.29L446.27 0.29Q444.22 1.28 441.25 1.28L441.25 1.28L441.25 1.28Q438.27 1.28 435.81 0.51L435.81 0.51L435.81 0.51Q433.34-0.26 431.81-1.92L431.81-1.92L431.81-1.92Q428.99-5.18 428.99-12.61L428.99-12.61L428.99-12.61Q428.99-22.21 434.62-28.03L434.62-28.03L434.62-28.03Q440.26-33.92 449.22-33.92ZM448.77-30.08L448.77-30.08L448.77-30.08Q446.40-30.08 445.12-27.52L445.12-27.52L445.12-27.52Q443.84-24.96 442.53-18.62L442.53-18.62L442.53-18.62Q441.22-12.29 441.22-6.59L441.22-6.59L441.22-6.59Q441.22-2.69 443.52-2.69L443.52-2.69L443.52-2.69Q445.57-2.69 447.01-4.74L447.01-4.74L447.01-4.74Q448.45-6.78 449.02-10.18L449.02-10.18L452.48-28.93L452.48-28.93Q451.14-30.08 448.77-30.08ZM471.84-1.92L471.84-1.92L471.84-1.92Q470.34-3.58 469.66-6.21L469.66-6.21L469.66-6.21Q468.99-8.83 468.99-13.12L468.99-13.12L468.99-13.12Q468.99-17.41 470.46-21.31L470.46-21.31L470.46-21.31Q471.94-25.22 474.62-28.03L474.62-28.03L474.62-28.03Q480.13-33.92 489.22-33.92L489.22-33.92L489.22-33.92Q492.48-33.92 494.85-32.83L494.85-32.83L505.79-33.92L501.06-8.96L501.06-8.96Q500.86-8.19 500.86-6.78L500.86-6.78L500.86-6.78Q500.86-5.38 501.73-4.48L501.73-4.48L501.73-4.48Q502.59-3.58 503.87-3.46L503.87-3.46L503.87-3.46Q503.23-1.28 500.90 0L500.90 0L500.90 0Q498.56 1.28 495.94 1.28L495.94 1.28L495.94 1.28Q493.31 1.28 491.55 0.29L491.55 0.29L491.55 0.29Q489.79-0.70 489.28-2.37L489.28-2.37L489.28-2.37Q488.26-0.77 486.08 0.26L486.08 0.26L486.08 0.26Q483.90 1.28 480.99 1.28L480.99 1.28L480.99 1.28Q478.08 1.28 475.71 0.51L475.71 0.51L475.71 0.51Q473.34-0.26 471.84-1.92ZM485.34-27.90L485.34-27.90L485.34-27.90Q484.61-26.75 483.97-24.80L483.97-24.80L483.97-24.80Q483.33-22.85 482.27-17.63L482.27-17.63L482.27-17.63Q481.22-12.42 481.22-8.70L481.22-8.70L481.22-8.70Q481.22-4.99 481.79-3.90L481.79-3.90L481.79-3.90Q482.37-2.82 483.39-2.82L483.39-2.82L483.39-2.82Q485.44-2.82 486.94-4.77L486.94-4.77L486.94-4.77Q488.45-6.72 489.02-10.18L489.02-10.18L492.42-28.93L492.42-28.93Q491.07-30.08 489.50-30.08L489.50-30.08L489.50-30.08Q487.94-30.08 487.01-29.57L487.01-29.57L487.01-29.57Q486.08-29.06 485.34-27.90ZM510.27-6.40L510.27-6.40L510.27-6.40Q510.27-8.13 511.17-12.48L511.17-12.48L514.56-29.76L510.78-29.76L511.04-31.68L511.04-31.68Q518.72-33.98 526.14-39.62L526.14-39.62L529.22-39.62L527.68-32.64L532.67-32.64L532.10-29.76L527.17-29.76L523.90-12.48L523.90-12.48Q523.07-8.51 523.07-7.17L523.07-7.17L523.07-7.17Q523.07-4.10 525.76-3.46L525.76-3.46L525.76-3.46Q525.12-1.28 522.82 0L522.82 0L522.82 0Q520.51 1.28 517.25 1.28L517.25 1.28L517.25 1.28Q513.98 1.28 512.13-0.77L512.13-0.77L512.13-0.77Q510.27-2.82 510.27-6.40ZM558.02-10.82L558.02-10.82L558.02-10.82Q559.62-9.73 559.62-7.33L559.62-7.33L559.62-7.33Q559.62-4.93 558.40-3.39L558.40-3.39L558.40-3.39Q557.18-1.86 555.20-0.83L555.20-0.83L555.20-0.83Q551.10 1.28 546.69 1.28L546.69 1.28L546.69 1.28Q542.27 1.28 539.68 0.32L539.68 0.32L539.68 0.32Q537.09-0.64 535.36-2.43L535.36-2.43L535.36-2.43Q531.97-5.82 531.97-12.03L531.97-12.03L531.97-12.03Q531.97-21.70 537.22-27.58L537.22-27.58L537.22-27.58Q542.85-33.92 552.64-33.92L552.64-33.92L552.64-33.92Q558.72-33.92 561.73-31.36L561.73-31.36L561.73-31.36Q563.97-29.44 563.97-26.30L563.97-26.30L563.97-26.30Q563.97-15.04 544.51-15.04L544.51-15.04L544.51-15.04Q544.26-13.38 544.26-11.97L544.26-11.97L544.26-11.97Q544.26-9.02 545.57-7.90L545.57-7.90L545.57-7.90Q546.88-6.78 549.31-6.78L549.31-6.78L549.31-6.78Q551.74-6.78 554.34-7.90L554.34-7.90L554.34-7.90Q556.93-9.02 558.02-10.82ZM544.96-17.79L544.96-17.79L544.96-17.79Q549.50-17.79 552.13-20.61L552.13-20.61L552.13-20.61Q554.75-23.30 554.75-27.58L554.75-27.58L554.75-27.58Q554.75-29.06 554.21-29.86L554.21-29.86L554.21-29.86Q553.66-30.66 552.58-30.66L552.58-30.66L552.58-30.66Q551.49-30.66 550.56-30.24L550.56-30.24L550.56-30.24Q549.63-29.82 548.67-28.42L548.67-28.42L548.67-28.42Q546.30-25.22 544.96-17.79ZM586.18-17.98L586.18-17.98L586.18-17.98Q588.48-22.08 588.48-26.24L588.48-26.24L588.48-26.24Q588.48-28.99 586.50-28.99L586.50-28.99L586.50-28.99Q584.96-28.99 583.36-26.37L583.36-26.37L583.36-26.37Q581.70-23.74 581.18-20.35L581.18-20.35L577.86 0L564.61 1.28L571.14-32.64L581.70-33.92L580.54-27.46L580.54-27.46Q583.68-33.92 590.72-33.92L590.72-33.92L590.72-33.92Q594.43-33.92 596.45-32L596.45-32L596.45-32Q598.46-30.08 598.46-26.14L598.46-26.14L598.46-26.14Q598.46-22.21 595.87-19.71L595.87-19.71L595.87-19.71Q593.28-17.22 588.86-17.22L588.86-17.22L588.86-17.22Q586.94-17.22 586.18-17.98Z" fill="#ccc"></path></g></g><style>text {
  font-size: 64px;
  font-family: Arial Black;
  dominant-baseline: central;
  text-anchor: middle;
}</style></svg>